<svg aria-hidden="true" style="position: absolute; width: 0; height: 0; overflow: hidden;" version="1.1" xmlns="http://www.w3.org/2000/svg" xmlns:xlink="http://www.w3.org/1999/xlink">
<defs>
<symbol id="icon-bucket" viewBox="0 0 20 20">
<path d="M11 1c-4.908 0-7.998 1.592-7.79 2.95 0.060 0.389 0.225 1.945 0.434 3.273-2.405 0.934-3.202 2.449-3.095 3.684 0.127 1.461 1.441 3.025 4.328 3.295 1.648 0.154 3.631-0.75 4.916-2.295-0.122-0.207-0.193-0.45-0.193-0.707 0-0.774 0.627-1.4 1.4-1.4s1.4 0.627 1.4 1.4c0 0.762-0.61 1.381-1.369 1.398-1.529 1.973-3.858 3.164-6.064 3.025 0.051 0.324 0.070 0.947 0.096 1.113 0.090 0.579 2.347 2.26 5.937 2.264 3.59-0.004 5.847-1.685 5.938-2.263 0.088-0.577 1.641-11.409 1.852-12.787 0.208-1.358-2.883-2.95-7.79-2.95zM1.943 10.785c-0.055-0.643 0.455-1.498 1.924-2.139 0.211 1.34 0.441 2.797 0.643 4.074-1.604-0.313-2.498-1.149-2.567-1.935zM11 6.024c-3.59-0.002-6.137-1.334-6.137-1.832-0.002-0.494 2.547-1.79 6.137-1.788 3.59-0.002 6.139 1.294 6.137 1.788 0 0.498-2.547 1.83-6.137 1.832z"></path>
</symbol>
<symbol id="icon-eraser" viewBox="0 0 20 20">
<path d="M16.998 4.18l-3.154-2.425c-0.872-0.671-2.135-0.506-2.807 0.365l-8.4 10.897c-0.671 0.871-0.507 2.132 0.365 2.803l3.153 2.425c0.872 0.671 2.135 0.506 2.807-0.365l8.401-10.897c0.671-0.871 0.507-2.132-0.365-2.803zM8.548 16.467l-0.537 0.681c-0.152 0.197-0.385 0.31-0.639 0.31-0.124 0-0.309-0.029-0.485-0.164l-3.153-2.425c-0.168-0.129-0.275-0.317-0.303-0.53s0.028-0.422 0.157-0.589l0.537-0.681c0.152-0.197 0.385-0.311 0.64-0.311 0.124 0 0.309 0.029 0.485 0.164l3.154 2.425c0.168 0.129 0.275 0.317 0.303 0.53 0.026 0.213-0.030 0.422-0.159 0.59z"></path>
</symbol>
<symbol id="icon-palette" viewBox="0 0 20 20">
<path d="M15.74 2.608c-3.528-1.186-7.066-0.961-10.72 1.274-2.853 1.743-4.718 6.076-4.103 9.182 0.728 3.671 4.351 5.995 9.243 4.651 5.275-1.449 6.549-4.546 6.379-5.334s-2.665-1.652-1.718-3.498c1.188-2.313 3.129-1.149 3.982-1.622 0.855-0.472 0.539-3.442-3.063-4.653zM12.094 13.314c-0.798 0.218-1.623-0.256-1.843-1.059-0.221-0.805 0.248-1.631 1.046-1.849s1.622 0.254 1.843 1.059c0.22 0.803-0.248 1.631-1.046 1.849z"></path>
</symbol>
<symbol id="icon-round-brush" viewBox="0 0 20 20">
<path d="M12.135 9.304c-2.558-1.879-6.7 1.17-7.632 5.284-0.718 3.17-4.043 3.040-3.996 3.464 0.046 0.424 7.473 1.103 10.156-1.123 2.506-2.080 4.277-5.564 1.472-7.625zM14.338 1.508l-3.363 5.156c1.102 0.179 3.635 1.885 4.121 3.109l4.396-4.246c-0.526-1.503-3.438-3.844-5.154-4.019z"></path>
</symbol>
<symbol id="icon-spinner9" viewBox="0 0 32 32">
<path d="M16 0c-8.711 0-15.796 6.961-15.995 15.624 0.185-7.558 5.932-13.624 12.995-13.624 7.18 0 13 6.268 13 14 0 1.657 1.343 3 3 3s3-1.343 3-3c0-8.837-7.163-16-16-16zM16 32c8.711 0 15.796-6.961 15.995-15.624-0.185 7.558-5.932 13.624-12.995 13.624-7.18 0-13-6.268-13-14 0-1.657-1.343-3-3-3s-3 1.343-3 3c0 8.837 7.163 16 16 16z"></path>
</symbol>
</defs>
</svg>
